REM MD5 e4aa0eb1fe90b576cfa5850f19a31f5b
FILE "Alien Resurrection (Europe) (En,Fr,De,Es,It).bin" BINARY
  TRACK 01 MODE2/2352
    INDEX 01 00:00:00
  TRACK 02 AUDIO
    INDEX 00 47:36:22
    INDEX 01 47:38:22
  TRACK 03 AUDIO
    INDEX 00 49:02:74
    INDEX 01 49:04:74
  TRACK 04 AUDIO
    INDEX 00 50:48:09
    INDEX 01 50:50:09
REM LEADOUT 53:50:09
